# Blender 5.0.1
# www.blender.org
mtllib HeartBottom3.mtl
o Heart
v -0.430038 0.562573 -6.340999
v -1.300761 1.885931 -5.706211
v 1.306975 0.991080 -6.121278
v 1.065528 2.754462 -4.938627
v -0.174125 -0.828176 -5.252205
v -1.026714 0.190242 -3.725168
v 1.136784 -0.226985 -4.811471
v 0.889426 0.775154 -3.010142
v 0.676027 0.833749 -6.572476
v -0.737138 0.977152 -5.894607
v -0.390468 2.257385 -5.445700
v 1.315965 2.007413 -5.486294
v 1.260729 0.230392 -5.621023
v 1.087550 1.905872 -3.774039
v 1.183394 0.461888 -4.135244
v 0.543456 -0.711776 -5.221426
v -0.204067 0.245940 -3.228981
v -0.581724 -0.258386 -4.640392
v -0.321079 -0.415080 -6.073710
v -1.604501 0.911721 -4.609734
v 0.730751 -0.342315 -6.125432
v -0.655355 0.361046 -5.266333
v 0.209180 0.064350 -4.414049
v 1.109763 1.081320 -4.761185
v 0.061917 1.303214 -5.665930
vn 0.0407 0.4250 -0.9043
vn 0.9909 0.0331 0.1305
vn 0.0800 -0.9453 0.3163
vn -0.7268 -0.4558 -0.5138
vn 0.0922 -0.9076 -0.4095
vn -0.0732 -0.3190 -0.9449
vn 0.7123 -0.3059 -0.6317
vn 0.7465 -0.6422 -0.1743
vn -0.9375 -0.2489 -0.2432
vn -0.9190 -0.3734 -0.1263
vn -0.7328 -0.6341 -0.2469
vn 0.0833 -0.7010 0.7083
vn 0.3313 -0.8967 0.2935
vn 0.9986 0.0187 0.0491
vn 0.9884 -0.0418 0.1461
vn 0.9901 0.0404 0.1345
vn -0.0833 0.7010 -0.7083
vn -0.2313 0.7348 -0.6376
vn 0.1520 0.2901 -0.9448
vt 0.500000 0.125000
vt 0.625000 0.125000
vt 0.625000 0.250000
vt 0.500000 0.250000
vt 0.500000 0.375000
vt 0.625000 0.375000
vt 0.625000 0.500000
vt 0.500000 0.500000
vt 0.500000 0.625000
vt 0.625000 0.625000
vt 0.625000 0.750000
vt 0.500000 0.750000
vt 0.500000 0.875000
vt 0.625000 0.875000
vt 0.625000 1.000000
vt 0.500000 1.000000
vt 0.250000 0.625000
vt 0.375000 0.625000
vt 0.375000 0.750000
vt 0.250000 0.750000
vt 0.125000 0.625000
vt 0.125000 0.750000
vt 0.125000 0.500000
vt 0.250000 0.500000
vt 0.375000 0.500000
vt 0.375000 0.875000
vt 0.375000 1.000000
vt 0.375000 0.375000
vt 0.375000 0.250000
vt 0.375000 0.125000
vt 0.375000 0.000000
vt 0.500000 0.000000
vt 0.625000 0.000000
s 0
f 25/1/1 11/2/1 4/3/1 12/4/1
f 24/5/2 14/6/2 8/7/2 15/8/2
f 23/9/3 17/10/3 6/11/3 18/12/3
f 22/13/4 20/14/4 2/15/4 10/16/4
f 21/17/5 16/18/5 5/19/5 19/20/5
f 9/21/6 21/17/6 19/20/6 1/22/6
f 3/23/7 13/24/7 21/17/7 9/21/7
f 13/24/8 7/25/8 16/18/8 21/17/8
f 19/26/9 22/13/9 10/16/9 1/27/9
f 5/19/10 18/12/10 22/13/10 19/26/10
f 18/12/11 6/11/11 20/14/11 22/13/11
f 16/18/12 23/9/12 18/12/12 5/19/12
f 7/25/12 15/8/12 23/9/12 16/18/12
f 15/8/13 8/7/13 17/10/13 23/9/13
f 13/28/14 24/5/14 15/8/14 7/25/14
f 3/29/15 12/4/15 24/5/15 13/28/15
f 12/4/16 4/3/16 14/6/16 24/5/16
f 9/30/17 25/1/17 12/4/17 3/29/17
f 1/31/18 10/32/18 25/1/18 9/30/18
f 10/32/19 2/33/19 11/2/19 25/1/19
